{"title":"Vuelve (2013) BRRIP 1080P Uncut English Sub included","uid":8889215,"size":3920922971,"categoryP":"video","categoryS":"hd___movies","magnet":"?xt=urn:btih:b3468d2fc70b44b8c2503d899bcebe4d8b1bf60e&amp;dn=+Vuelve+%282013%29+BRRIP+1080P+Uncut+English+Sub+included&amp;tr=udp%3A%2F%2Ftracker.openbittorrent.com%3A80&amp;tr=udp%3A%2F%2Fopen.demonii.com%3A1337&amp;tr=udp%3A%2F%2Ftracker.coppersurfer.tk%3A6969&amp;tr=udp%3A%2F%2Fexodus.desync.com%3A6969","seeders":3,"leechers":1,"uploader":null,"files":3,"time":1378542376,"description":"Format                                   : MPEG-4\nFormat profile                           : QuickTime\nCodec ID                                 : qt  \nFile size                                : 3.65 GiB\nDuration                                 : 1h 27mn\nOverall bit rate                         : 5 974 Kbps\nEncoded date                             : UTC 2012-11-26 01:46:13\nTagged date                              : UTC 2012-11-26 10:34:25\nWriting library                          : Apple QuickTime\nMedia/UUID                               : 2C592E8E-A953-4056-BE80-72F0A6C01266\nMedia/History/UUID                       : FFF641F6-2E4F-4FC2-B7E4-1B4CBC48A2BF\n\nVideo\nID                                       : 1\nFormat                                   : AVC\nFormat/Info                              : Advanced Video Codec\nFormat profile                           : &lt;a class=&quot;__cf_email__&quot; href=&quot;/cdn-cgi/l/email-protection&quot; data-cfemail=&quot;4c012d25220c0078627c&quot;&gt;[email&amp;#160;protected]&lt;/a&gt;&lt;script cf-hash='f9e31' type=&quot;text/javascript&quot;&gt;\n/* &lt;![CDATA[ */!function(){try{var t=&quot;currentScript&quot;in document?document.currentScript:function(){for(var t=document.getElementsByTagName(&quot;script&quot;),e=t.length;e--;)if(t[e].getAttribute(&quot;cf-hash&quot;))return t[e]}();if(t&amp;&amp;t.previousSibling){var e,r,n,i,c=t.previousSibling,a=c.getAttribute(&quot;data-cfemail&quot;);if(a){for(e=&quot;&quot;,r=parseInt(a.substr(0,2),16),n=2;a.length-n;n+=2)i=parseInt(a.substr(n,2),16)^r,e+=String.fromCharCode(i);e=document.createTextNode(e),c.parentNode.replaceChild(e,c)}}}catch(u){}}();/* ]]&gt; */&lt;/script&gt;\nFormat settings, CABAC                   : No\nFormat settings, ReFrames                : 2 frames\nFormat settings, GOP                     : M=2, N=24\nCodec ID                                 : avc1\nCodec ID/Info                            : Advanced Video Coding\nDuration                                 : 1h 27mn\nSource duration                          : 1h 27mn\nBit rate                                 : 4 435 Kbps\nWidth                                    : 1 888 pixels\nOriginal width                           : 1 920 pixels\nHeight                                   : 1 062 pixels\nOriginal height                          : 1 080 pixels\nDisplay aspect ratio                     : 16:9\nFrame rate mode                          : Constant\nFrame rate                               : 29.970 fps\nColor space                              : YUV\nChroma subsampling                       : 4:2:0\nBit depth                                : 8 bits\nScan type                                : Progressive\nBits/(Pixel*Frame)                       : 0.074\nStream size                              : 2.71 GiB (74%)\nSource stream size                       : 2.71 GiB (74%)\nLanguage                                 : English\nEncoded date                             : UTC 2012-11-26 10:23:31\nTagged date                              : UTC 2012-11-26 10:34:25\nColor primaries                          : BT.709\nTransfer characteristics                 : BT.709\nMatrix coefficients                      : BT.709\n\nAudio\nID                                       : 2\nFormat                                   : PCM\nFormat settings, Endianness              : Big\nFormat settings, Sign                    : Signed\nCodec ID                                 : twos\nDuration                                 : 1h 27mn\nBit rate mode                            : Constant\nBit rate                                 : 1 536 Kbps\nChannel(s)                               : 2 channels\nChannel positions                        : Front: L R\nSampling rate                            : 48.0 KHz\nBit depth                                : 16 bits\nStream size                              : 961 MiB (26%)\nLanguage                                 : English\nEncoded date                             : UTC 2012-11-26 10:23:31\nTagged date                              : UTC 2012-11-26 10:34:25\n\nOther\nID                                       : 3\nType                                     : Time code\nFormat                                   : QuickTime TC\nDuration                                 : 1h 27mn\nTime code of first frame                 : 01:00:00;00\nTime code settings                       : Striped\nLanguage                                 : English\nEncoded date                             : UTC 2012-11-26 10:34:24\nTagged date                              : UTC 2012-11-26 10:34:25\n\n\nStoryline\n\nA visual incursion into the troubles psyche of a young boy whose unstable and manipulative mother committed suicide in front of him.\n\n\n &lt;a href=&quot;\nhttp://www.imdb.com/title/tt1961649/&quot; rel=&quot;nofollow&quot; target=&quot;_NEW&quot;&gt;\nhttp://www.imdb.com/title/tt1961649/&lt;/a&gt;\n","torrent":{"xt":"urn:btih:b3468d2fc70b44b8c2503d899bcebe4d8b1bf60e","amp;dn":"+Vuelve+%282013%29+BRRIP+1080P+Uncut+English+Sub+included","amp;tr":["udp%3A%2F%2Ftracker.openbittorrent.com%3A80","udp%3A%2F%2Fopen.demonii.com%3A1337","udp%3A%2F%2Ftracker.coppersurfer.tk%3A6969","udp%3A%2F%2Fexodus.desync.com%3A6969"],"infoHash":"b3468d2fc70b44b8c2503d899bcebe4d8b1bf60e","infoHashBuffer":{"type":"Buffer","data":[179,70,141,47,199,11,68,184,194,80,61,137,155,206,190,77,139,27,246,14]},"announce":[],"urlList":[]}}